<svg xmlns="http://www.w3.org/2000/svg" height="24" viewBox="0 -960 960 960" width="24"><path d="m566.846-242-42.461 109.308q-2.462 5.615-7.462 9.154-5 3.538-11.615 3.538-10.769 0-16.731-8.807-5.962-8.808-1.808-18.808l158.923-400.462q2.693-5.615 7.308-8.769T663.462-560h14.615q5.846 0 10.462 3.154 4.615 3.154 7.307 8.769L854.77-147.385q4.153 9.77-1.693 18.578Q847.231-120 836.462-120q-6.846 0-11.731-3.538-4.885-3.539-7.577-9.385L774.692-242H566.846ZM356.615-431.769 174.923-249.538q-5.615 6.384-13.654 6.5-8.038.115-14.654-6.5-6.384-6.385-6.384-14.154 0-7.77 6.384-14.154l181.693-182.462q-34.231-35-68.116-86.153Q226.308-597.615 210-640h43.231q14.615 33.615 44.231 77.231 29.615 43.615 59.153 74.153 52.231-52.999 92.731-116.346 40.5-63.346 53.885-115.038H115.384q-8.538 0-14.269-5.731-5.73-5.731-5.73-14.269 0-8.539 5.73-14.269Q106.846-760 115.384-760H340v-29.231q0-8.539 5.731-14.269 5.73-5.731 14.269-5.731t14.269 5.731Q380-797.77 380-789.231V-760h224.616q8.538 0 14.269 5.731 5.731 5.73 5.731 14.269 0 8.538-5.731 14.269T604.616-720h-59.847q-17.923 62.769-61.077 133.769-43.153 71-98.769 126.385l101.385 104.154-15.385 41.231-114.308-117.308Zm223.693 153.615h180.923l-90.462-232.461-90.461 232.461Z"/></svg>